<?xml version="1.0" encoding="utf-8"?>
<!-- Generator: Adobe Illustrator 17.1.0, SVG Export Plug-In . SVG Version: 6.00 Build 0)  -->
<!DOCTYPE svg PUBLIC "-//W3C//DTD SVG 1.0//EN" "http://www.w3.org/TR/2001/REC-SVG-20010904/DTD/svg10.dtd">
<svg version="1.0" id="レイヤー_1" xmlns="http://www.w3.org/2000/svg" xmlns:xlink="http://www.w3.org/1999/xlink" x="0px"
	 y="0px" viewBox="4.455 704.803 595.28 217.891" enable-background="new 4.455 704.803 595.28 217.891" xml:space="preserve">
<g id="レイヤー_1_1_">
	<g>
		<path fill="#F674A5" d="M32.078,708.578c17.479,0,29.026,10.145,29.026,25.357c0,15.968-12.303,26.543-30.86,26.543H17.403v21.472
			H4.455v-73.372L32.078,708.578L32.078,708.578z M31.648,748.61c9.927,0,16.616-5.828,16.616-14.674
			c0-7.984-6.69-13.38-16.616-13.38H17.403v28.053h14.244C31.648,748.608,31.648,748.61,31.648,748.61z"/>
		<path fill="#8BDEEA" d="M98.963,807.416H85.799l10.357-23.74l-25.355-52.87h13.38l18.343,38.196l16.616-38.196h13.164
			L98.963,807.416z"/>
		<path fill="#FCE859" d="M204.153,753.465h13.38c-3.453,18.127-17.265,29.996-35.715,29.996c-21.148,0-38.196-16.076-38.196-38.196
			s17.049-38.198,38.196-38.198c18.451,0,32.261,11.869,35.715,29.996h-13.38c-2.805-11.111-10.791-17.586-22.334-17.586
			c-14.35,0-25.033,10.573-25.033,25.789c0,15.214,10.683,25.787,25.033,25.787C193.362,771.052,201.347,764.578,204.153,753.465z"
			/>
		<path fill="#FEB94D" d="M282.689,756.486c0,15.54-11.653,27.083-27.083,27.083c-15.536,0-27.193-11.543-27.193-27.083
			c0-15.428,11.653-26.759,27.193-26.759C271.036,729.727,282.689,741.058,282.689,756.486z M270.281,756.486
			c0-8.632-5.936-15.428-14.676-15.428c-8.848,0-14.782,6.796-14.782,15.428c0,8.742,5.936,15.756,14.782,15.756
			C264.346,772.241,270.281,765.227,270.281,756.486z"/>
		<path fill="#D0F179" d="M345.474,753.79v28.162h-12.409v-27.407c0-8.954-4.747-13.918-12.515-13.918
			c-4.425,0-9.28,2.588-13.164,7.338v33.989H294.87v-51.038h12.517v4.207c4.425-3.667,9.603-5.828,15.754-5.828
			C336.518,729.293,345.474,739.008,345.474,753.79z"/>
		<path fill="#F674A5" d="M471.699,753.79v28.162h-12.517v-27.407c0-8.954-4.425-13.918-12.303-13.918
			c-3.885,0-8.2,1.834-11.761,7.014c0.43,1.942,0.648,3.993,0.648,6.15v28.162h-12.409v-27.407c0-8.954-4.533-13.918-12.303-13.918
			c-3.669,0-7.66,2.049-11.113,6.796v34.529h-12.517v-51.036h12.517v3.559c3.453-3.237,7.23-5.18,13.704-5.18
			c6.69,0,12.623,2.807,16.616,7.768c5.393-5.177,10.791-7.768,19.205-7.768C461.987,729.293,471.699,739.008,471.699,753.79z"/>
		<path fill="#8BDEEA" d="M487.002,712.463c0-4.425,3.451-7.66,7.768-7.66s7.768,3.237,7.768,7.66c0,4.209-3.451,7.444-7.768,7.444
			C490.452,719.909,487.002,716.672,487.002,712.463z M501.029,730.914v51.036H488.62v-51.036H501.029z"/>
		<path fill="#FCE859" d="M569.214,753.79v28.162h-12.407v-27.407c0-8.954-4.749-13.918-12.517-13.918
			c-4.425,0-9.281,2.588-13.164,7.338v33.989h-12.517v-51.038h12.517v4.207c4.425-3.667,9.603-5.828,15.754-5.828
			C560.26,729.293,569.214,739.008,569.214,753.79z"/>
		<path fill="#FEB94D" d="M584.199,712.463c0-4.425,3.451-7.66,7.768-7.66c4.317,0,7.768,3.237,7.768,7.66
			c0,4.209-3.451,7.444-7.768,7.444C587.65,719.907,584.199,716.672,584.199,712.463z M598.225,730.914v51.036h-12.409v-51.036
			H598.225z"/>
	</g>
</g>
<g id="レイヤー_2">
	<path fill="#D0F179" d="M144.65,845.439h-12.841c-1.186-7.34-6.042-12.195-16.079-12.195c-8.848,0-14.566,3.991-14.566,10.681
		c0,5.611,4.209,8.308,11.869,9.821l9.28,1.834c14.026,2.804,22.012,8.416,22.012,20.177c0,13.704-11.327,22.874-28.378,22.874
		c-18.017,0-30.21-9.71-31.506-25.463h12.841c1.294,8.632,8.416,14.026,19.421,14.026c8.957,0,14.352-3.779,14.352-9.929
		c0-3.883-2.483-7.66-10.791-9.062l-12.085-2.375c-14.242-2.695-20.717-9.925-20.717-20.826c0-13.704,10.899-22.874,27.407-22.874
		C127.817,822.13,142.923,827.742,144.65,845.439z"/>
	<path fill="#F674A5" d="M211.64,846.085v51.036h-12.407v-3.563c-4.209,3.023-9.495,4.749-15.648,4.749
		c-14.242,0-25.679-11.869-25.679-26.651c0-14.89,11.435-26.759,25.679-26.759c6.15,0,11.439,1.727,15.648,4.749v-3.559
		C199.233,846.085,211.64,846.085,211.64,846.085z M199.233,880.292v-17.375c-3.563-5.287-8.526-7.23-13.81-7.23
		c-8.742,0-15.106,7.444-15.106,15.968c0,8.418,6.363,15.862,15.106,15.862C190.708,887.518,195.67,885.575,199.233,880.292z"/>
	<path fill="#8BDEEA" d="M284.354,871.656c0,14.782-11.439,26.651-25.681,26.651c-6.15,0-11.439-1.726-15.536-4.749v29.136H230.62
		v-76.61h12.517v3.559c4.099-3.021,9.387-4.749,15.536-4.749C272.915,844.898,284.354,856.766,284.354,871.656z M271.945,871.656
		c0-8.524-6.258-15.968-15.106-15.968c-5.287,0-10.145,1.942-13.704,7.122V880.4c3.559,5.177,8.416,7.122,13.704,7.122
		C265.687,887.518,271.945,880.074,271.945,871.656z"/>
	<path fill="#FCE859" d="M350.27,871.656c0,14.782-11.439,26.651-25.681,26.651c-6.15,0-11.439-1.726-15.536-4.749v29.136h-12.517
		v-76.61h12.517v3.559c4.099-3.021,9.387-4.749,15.536-4.749C338.831,844.898,350.27,856.766,350.27,871.656z M337.861,871.656
		c0-8.524-6.258-15.968-15.106-15.968c-5.287,0-10.145,1.942-13.704,7.122V880.4c3.559,5.177,8.416,7.122,13.704,7.122
		C331.603,887.518,337.861,880.074,337.861,871.656z"/>
	<path fill="#FEB94D" d="M414.244,871.656c0,15.54-11.653,27.083-27.085,27.083c-15.54,0-27.193-11.543-27.193-27.083
		c0-15.428,11.651-26.759,27.193-26.759C402.589,844.898,414.244,856.228,414.244,871.656z M401.833,871.656
		c0-8.632-5.936-15.428-14.674-15.428c-8.849,0-14.782,6.796-14.782,15.428c0,8.742,5.933,15.756,14.782,15.756
		C395.901,887.412,401.833,880.398,401.833,871.656z"/>
	<path fill="#D0F179" d="M438.939,852.559c4.641-4.749,10.789-7.448,18.561-7.448v11.761c-8.094,0.324-14.134,3.129-18.561,8.524
		v31.723h-12.517v-51.036h12.517L438.939,852.559L438.939,852.559z"/>
	<path fill="#F674A5" d="M519.75,871.656c0,15.54-11.653,27.083-27.083,27.083c-15.54,0-27.193-11.543-27.193-27.083
		c0-15.428,11.651-26.759,27.193-26.759C508.095,844.898,519.75,856.228,519.75,871.656z M507.339,871.656
		c0-8.632-5.936-15.428-14.674-15.428c-8.849,0-14.784,6.796-14.784,15.428c0,8.742,5.936,15.756,14.784,15.756
		C501.407,887.412,507.339,880.398,507.339,871.656z"/>
</g>
</svg>
